<?xml version="1.0" encoding="UTF-8"?>
<svg width="25px" height="29px" viewBox="0 0 25 29" version="1.1" xmlns="http://www.w3.org/2000/svg" xmlns:xlink="http://www.w3.org/1999/xlink">
    <title>Shape</title>
    <g id="Designs" stroke="none" stroke-width="1" fill="none" fill-rule="evenodd">
        <g id="Mining-hub-new-user" transform="translate(-1230.000000, -908.000000)" fill="#FFFFFF" fill-rule="nonzero">
            <g id="nav" transform="translate(1.000000, 881.000000)">
                <g id="Group-5" transform="translate(1229.000000, 27.000000)">
                    <path d="M24.3970368,22.5169613 L17.8567943,11.9978852 L17.8567943,3.5714635 L18.3032272,3.5714635 C19.0454219,3.5714635 19.642526,2.97435945 19.642526,2.23216469 L19.642526,1.33929881 C19.642526,0.597104055 19.0454219,0 18.3032272,0 L6.6959708,0 C5.95377604,0 5.35667199,0.597104055 5.35667199,1.33929881 L5.35667199,2.23216469 C5.35667199,2.97435945 5.95377604,3.5714635 6.6959708,3.5714635 L7.14240374,3.5714635 L7.14240374,11.9978852 L0.602161198,22.5169613 C-1.03289944,25.1453352 0.853279726,28.571708 3.95598864,28.571708 L21.0432093,28.571708 C24.1514987,28.571708 26.0320974,25.1397548 24.3970368,22.5169613 Z M7.6948645,17.8573175 L10.384623,13.526918 C10.5910982,13.2367366 10.7082868,12.8795903 10.7082868,12.5001223 L10.7082868,3.5714635 L14.2797503,3.5714635 L14.2797503,12.5001223 C14.2797503,12.8851707 14.4025194,13.2367366 14.6034142,13.526918 L17.2931727,17.8573175 L7.6948645,17.8573175 Z" id="Shape"></path>
                </g>
            </g>
        </g>
    </g>
</svg>