<?xml version="1.0" encoding="UTF-8"?>
<svg width="28px" height="28px" viewBox="0 0 28 28" version="1.1" xmlns="http://www.w3.org/2000/svg" xmlns:xlink="http://www.w3.org/1999/xlink">
    <title>Shape</title>
    <g id="Designs" stroke="none" stroke-width="1" fill="none" fill-rule="evenodd">
        <g id="Mining-hub-new-user" transform="translate(-390.000000, -911.000000)" fill="#58E59C" fill-rule="nonzero">
            <g id="nav" transform="translate(1.000000, 881.000000)">
                <g id="Group-3-Copy" transform="translate(389.000000, 30.000000)">
                    <path d="M27.5032915,0.495922676 C26.2186357,-0.788733738 22.6738931,0.496670801 18.3588081,3.49377551 C14.2343862,1.78442471 9.30949571,2.602623 5.95605873,5.95606052 C2.60273059,9.30949804 1.78442402,14.2343891 3.49377427,18.3588132 C0.496671748,22.6739009 -0.788733884,26.2186429 0.49592253,27.5032993 C2.52988137,29.5372593 10.224574,25.1402448 17.6824594,17.6823578 C25.1403447,10.2245774 29.5372509,2.52988261 27.5032915,0.495922676 Z M18.9494922,18.9494967 C16.8628736,21.0360091 14.3518818,23.2624477 11.8022231,25.1605399 C15.523611,25.893315 19.3654098,24.7230085 22.0462526,22.0399563 C24.7270954,19.3569041 25.8942366,15.5141424 25.158396,11.7933595 C23.1793395,14.4512223 20.894901,17.0040862 18.9494922,18.9494967 Z" id="Shape"></path>
                </g>
            </g>
        </g>
    </g>
</svg>