<?xml version="1.0" encoding="UTF-8"?>
<svg width="28px" height="28px" viewBox="0 0 28 28" version="1.1" xmlns="http://www.w3.org/2000/svg" xmlns:xlink="http://www.w3.org/1999/xlink">
    <title>Fill 1</title>
    <g id="Designs" stroke="none" stroke-width="1" fill="none" fill-rule="evenodd">
        <g id="Mining-hub-new-user" transform="translate(-646.000000, -909.000000)" fill="#58E59C">
            <g id="nav" transform="translate(1.000000, 881.000000)">
                <g id="Group-3-Copy-2" transform="translate(645.000000, 28.000000)">
                    <path d="M27.4578582,13.7023944 C27.0081187,10.99821 26.0145248,8.53937059 24.4537276,6.46345638 L24.9063408,5.97276616 C25.2590918,5.61929677 25.373682,4.36491152 24.5043772,3.49632516 C23.6357908,2.62666115 22.1123521,2.47255712 21.759242,2.82566729 L21.2340669,3.3224642 C19.2246078,1.89134425 16.8731743,0.973545186 14.3019001,0.545717912 C6.27412177,-0.789850355 4.80097345,0.385147978 11.4238546,3.42376335 C13.4369059,4.34730989 15.4007444,5.57870527 17.237061,7.1032216 L0.0657768677,23.3437748 C-0.286974084,23.6965258 0.853180214,25.4089125 1.72212579,26.2782173 C2.59107136,27.1471629 4.30309889,28.286958 4.65620906,27.934207 L20.7017075,10.5319465 C22.3181834,12.4357958 23.6167523,14.4815358 24.5801719,16.5804399 C27.6054963,23.1731468 28.7923488,21.7211923 27.4578582,13.7023944" id="Fill-1"></path>
                </g>
            </g>
        </g>
    </g>
</svg>