<?xml version="1.0" encoding="UTF-8"?>
<svg width="33px" height="30px" viewBox="0 0 33 30" version="1.1" xmlns="http://www.w3.org/2000/svg" xmlns:xlink="http://www.w3.org/1999/xlink">
    <title>Shape</title>
    <g id="Designs" stroke="none" stroke-width="1" fill="none" fill-rule="evenodd">
        <g id="Mining-hub-new-user" transform="translate(-926.000000, -908.000000)" fill="#FFFFFF" fill-rule="nonzero">
            <g id="nav" transform="translate(1.000000, 881.000000)">
                <g id="Group-7" transform="translate(925.000000, 27.000000)">
                    <path d="M8.25,29.1627907 L24.75,29.1627907 L24.75,3.12458472 C24.75,1.39955357 23.3642578,0 21.65625,0 L11.34375,0 C9.63574219,0 8.25,1.39955357 8.25,3.12458472 L8.25,29.1627907 Z M12.375,4.16611296 L20.625,4.16611296 L20.625,6.24916944 L12.375,6.24916944 L12.375,4.16611296 Z M33,9.37375415 L33,26.038206 C33,27.7632371 31.6142578,29.1627907 29.90625,29.1627907 L26.8125,29.1627907 L26.8125,6.24916944 L29.90625,6.24916944 C31.6142578,6.24916944 33,7.64872301 33,9.37375415 Z M6.1875,29.1627907 L3.09375,29.1627907 C1.38574219,29.1627907 0,27.7632371 0,26.038206 L0,9.37375415 C0,7.64872301 1.38574219,6.24916944 3.09375,6.24916944 L6.1875,6.24916944 L6.1875,29.1627907 Z" id="Shape" transform="translate(16.500000, 14.581395) scale(-1, 1) translate(-16.500000, -14.581395) "></path>
                </g>
            </g>
        </g>
    </g>
</svg>