<svg xmlns="http://www.w3.org/2000/svg" width="28.001" height="28" viewBox="0 0 28.001 28">
  <path id="Fill_1" data-name="Fill 1" d="M27.458,13.7a16.4,16.4,0,0,0-3-7.239l.453-.491A2.012,2.012,0,0,0,24.5,3.5c-.869-.87-2.392-1.024-2.745-.671l-.525.5A16.512,16.512,0,0,0,14.3.546C6.274-.79,4.8.385,11.424,3.424A26.3,26.3,0,0,1,17.237,7.1L.066,23.344c-.353.353.787,2.065,1.656,2.934S4.3,28.287,4.656,27.934L20.7,10.532A26.385,26.385,0,0,1,24.58,16.58c3.025,6.593,4.212,5.141,2.878-2.878" fill="#fff"/>
</svg>
