<?xml version="1.0" encoding="UTF-8"?>
<svg width="36px" height="36px" viewBox="0 0 36 36" version="1.1" xmlns="http://www.w3.org/2000/svg" xmlns:xlink="http://www.w3.org/1999/xlink">
    <title>Fill 1</title>
    <g id="Symbols" stroke="none" stroke-width="1" fill="none" fill-rule="evenodd">
        <g id="User-box" transform="translate(-71.000000, -54.000000)" fill="#FFFFFF">
            <g id="Bitmap-Copy" transform="translate(66.804219, 48.500028)">
                <path d="M37.2156288,20.9926882 C37.2250479,21.0215665 37.219976,21.0532394 37.2020695,21.0777704 C37.1713281,21.1198974 37.112226,21.129213 37.070099,21.0984716 L35.8985114,20.2438203 L34.7274414,21.0984716 C34.703014,21.1163782 34.6712375,21.1213465 34.6424628,21.1119275 C34.5927798,21.095677 34.5656611,21.0422677 34.5820151,20.9926882 L35.0328885,19.6143987 L33.8584028,18.7646122 C33.8338718,18.7468091 33.8192774,18.7182413 33.8192774,18.6878105 C33.8193809,18.6356433 33.861922,18.5933093 33.9140891,18.5934128 L35.363384,18.596311 L35.8085645,17.2166758 C35.8206747,17.1789995 35.8549353,17.1529159 35.8944747,17.1512598 C35.9369123,17.1495002 35.9754166,17.1761014 35.9884584,17.2165723 L36.4340529,18.596311 L37.8834513,18.5934128 C37.9138821,18.5934128 37.9423463,18.6079037 37.9601494,18.6325381 C37.9907873,18.6748722 37.9812647,18.7339743 37.9390341,18.7646122 L36.7647555,19.6143987 L37.2156288,20.9926882 Z M30.925863,27.1907475 C30.8323968,25.2265089 30.2710823,23.3557365 29.4292657,21.6719999 C30.1776161,21.2043586 30.8947076,20.6743029 31.5183329,20.0819365 L31.5806437,20.1755062 C33.1708106,22.1085894 34.1685076,24.5404693 34.3555434,27.1907475 L30.925863,27.1907475 Z M31.6117991,35.7648968 L31.5183329,35.8584665 C30.8635522,35.2661001 30.1776161,34.7360444 29.4292657,34.2682996 C30.3023412,32.5846665 30.8322933,30.7138941 30.925863,28.7496555 L34.3555434,28.7496555 C34.1996629,31.3998302 33.201966,33.8318136 31.6117991,35.7648968 L31.6117991,35.7648968 Z M30.3334966,37.0744582 L30.2399269,37.1991833 L30.1776161,37.2302351 L30.1463572,37.261494 L30.0841499,37.2926494 L29.9904768,37.3550637 L29.9904768,37.3862191 L29.928166,37.4173745 L29.8657517,37.4486334 L29.7722855,37.5420995 C29.7098712,37.6045138 29.6164051,37.6356692 29.5539908,37.69798 C28.1509632,38.7892466 26.4673302,39.5687524 24.658972,39.9429276 C24.4718327,39.9117722 24.3159522,39.8805133 24.1600718,39.8493579 C25.5630993,39.0074379 26.7790911,37.9474301 27.8079434,36.700283 C28.088549,36.3261078 28.3691545,35.9520361 28.6498635,35.5467056 C29.3045407,35.9831915 29.8970106,36.4508329 30.4582216,36.9497331 L30.3334966,37.0744582 Z M22.9440801,33.7070885 C24.3783665,33.8006582 25.7190833,34.1435745 26.9662304,34.6736301 C27.0909555,34.7360444 27.2156805,34.7671998 27.3403021,34.8295106 C27.1220074,35.1725304 26.9038161,35.4842913 26.654366,35.7648968 C25.6254101,37.0120439 24.3783665,38.0409998 22.9440801,38.7892466 L22.9440801,33.7070885 Z M22.1954192,12.2370924 L20.2521924,13.6551284 C20.2116179,13.6848347 20.1590367,13.6931152 20.1111133,13.6774857 C20.0288258,13.6505741 19.9839041,13.5619727 20.0107122,13.4796853 L20.7590626,11.1926106 L18.81035,9.78244111 C18.769465,9.75294182 18.745348,9.70553595 18.7454512,9.65512839 C18.7456585,9.56849364 18.8159393,9.49841989 18.9025741,9.4985234 L21.3074389,9.50328469 L22.0460596,7.2139329 C22.0663469,7.15141511 22.1231718,7.10814948 22.1887948,7.10545832 C22.259179,7.10245664 22.3229389,7.14675732 22.3445717,7.21382939 L23.0841241,9.50328469 L25.4890924,9.4985234 C25.5393964,9.49841989 25.5868023,9.52264036 25.6164051,9.56342183 C25.6672267,9.63359909 25.6513902,9.73172304 25.5813165,9.78244111 L23.6326038,11.1926106 L24.3808507,13.4796853 C24.3964801,13.5275052 24.3880961,13.5800863 24.3584933,13.6207643 C24.3074647,13.6908381 24.2093408,13.706157 24.1393705,13.6551284 L22.1954192,12.2370924 Z M21.4787417,27.2219029 L15.024608,27.2219029 C15.1181776,25.5071144 15.5547671,23.8545332 16.303014,22.4203503 C16.4588944,22.51392 16.6459302,22.5762307 16.8330696,22.6698004 C18.2360972,23.2934257 19.7950052,23.6674974 21.4474828,23.7610671 L21.4787417,23.7610671 L21.4787417,27.2219029 Z M21.4787417,38.8205055 C20.0444553,38.0409998 18.7973082,37.0120439 17.7683523,35.7648968 C17.5190057,35.4842913 17.3007109,35.1725304 17.0824162,34.8607695 C17.1760894,34.7983552 17.3007109,34.7671998 17.425436,34.7047855 C18.6725831,34.1435745 20.0132999,33.8318136 21.4474828,33.7383474 L21.4787417,33.7383474 L21.4787417,38.8205055 Z M14.9935561,28.7496555 L21.4163275,28.7496555 L21.4163275,32.1793359 C19.7950052,32.2729056 18.2360972,32.6470808 16.8018107,33.2706026 C16.6459302,33.3641723 16.4588944,33.426483 16.2717551,33.5200527 C15.5547671,32.0857663 15.0870222,30.4645475 14.9935561,28.7496555 L14.9935561,28.7496555 Z M19.701539,39.9117722 C17.9554916,39.5687524 16.3654282,38.8516609 14.9935561,37.8227051 L14.8998829,37.7603943 L14.8064167,37.69798 L14.7129506,37.6356692 L14.6192774,37.4797888 L14.5569666,37.4486334 L14.4945523,37.4173745 L14.4635004,37.3862191 L14.3699308,37.3239083 L14.3386719,37.3239083 L14.30762,37.2926494 L14.2452057,37.261494 L14.2139468,37.2302351 L14.151636,37.1991833 C14.0581699,37.136769 13.9957556,37.0433028 13.9022894,36.9808885 C14.4635004,36.4508329 15.0558668,35.9831915 15.710544,35.577861 C15.9911496,35.9831915 16.2717551,36.3573667 16.5523606,36.6691276 C17.58142,37.9161712 18.7973082,38.976386 20.2003357,39.818099 C20.0132999,39.8493579 19.8574194,39.8805133 19.701539,39.9117722 L19.701539,39.9117722 Z M12.8110228,35.7648968 C11.2207523,33.8318136 10.1919,31.3998302 10.0360195,28.7496555 L13.4656999,28.7496555 C13.5592696,30.7138941 14.0892217,32.5846665 14.9311418,34.2682996 C14.2139468,34.7360444 13.4969588,35.2661001 12.8733335,35.8584665 L12.8110228,35.7648968 Z M8.91494306,20.2438203 L7.74397657,21.0984716 C7.71934207,21.1163782 7.68777266,21.1213465 7.65889441,21.1119275 C7.6093149,21.095677 7.58219626,21.0422677 7.59834324,20.9926882 L8.04932008,19.6143987 L6.87493788,18.7646122 C6.85030339,18.7468091 6.835709,18.7182413 6.83581196,18.6878105 C6.83591601,18.6356433 6.87825008,18.5933093 6.93052075,18.5934128 L8.37981561,18.596311 L8.8249961,17.2166758 C8.83720984,17.1789995 8.87147042,17.1529159 8.91100982,17.1512598 C8.95344739,17.1495002 8.99184822,17.1761014 9.00489001,17.2165723 L9.45058803,18.596311 L10.8999864,18.5934128 C10.9303137,18.5934128 10.9588815,18.6079037 10.9766845,18.6325381 C11.0073224,18.6748722 10.9977998,18.7339743 10.9555693,18.7646122 L9.78108357,19.6143987 L10.2320604,20.9926882 C10.2414795,21.0215665 10.2365112,21.0532394 10.2186046,21.0777704 C10.1878632,21.1198974 10.1287611,21.129213 10.0865306,21.0984716 L8.91494306,20.2438203 Z M14.9622972,21.6719999 C14.0892217,23.3557365 13.5592696,25.2265089 13.4656999,27.1907475 L10.0360195,27.1907475 C10.1919,24.5404693 11.2207523,22.1085894 12.8110228,20.1755062 L12.9044889,20.0819365 C13.5280107,20.6743029 14.2139468,21.2043586 14.9622972,21.6719999 L14.9622972,21.6719999 Z M21.4163275,17.1511563 L21.4163275,22.2333144 C20.0132999,22.1397448 18.6414277,21.7968285 17.3942806,21.2667728 C17.3007109,21.2356175 17.1760894,21.1732032 17.0513643,21.1108924 C17.2695556,20.7678726 17.4877468,20.4872671 17.7371969,20.1755062 C18.7661528,18.9283591 20.0132999,17.8994032 21.4163275,17.1511563 L21.4163275,17.1511563 Z M16.5836195,19.24012 C16.303014,19.6142952 16.0224084,19.9883668 15.7418029,20.3936974 C15.0870222,19.9572115 14.4945523,19.5207255 13.9333413,18.9906699 C14.1204806,18.803634 14.3386719,18.6164947 14.5569666,18.4294588 L14.6192774,18.3671481 L14.6816917,18.3359927 L14.7129506,18.3047338 L14.7440024,18.2735784 L14.8375721,18.2111641 L14.868831,18.1800087 L14.8998829,18.1488533 L14.9622972,18.1176979 L15.024608,18.086439 L15.1181776,18.0241283 L15.1494365,18.0241283 C16.4901533,17.0575867 18.0489578,16.3404952 19.7326944,15.9974754 C19.9197302,16.0287343 20.0756107,16.0910451 20.2314911,16.1222005 C18.8284636,16.9328616 17.6124718,17.9929729 16.5836195,19.24012 L16.5836195,19.24012 Z M11.1169356,12.2578972 L12.9886395,12.2616234 L13.5635134,10.4798664 C13.5792463,10.4312184 13.623547,10.3974754 13.6745756,10.3954053 C13.7294339,10.3931281 13.7789099,10.4275957 13.7957815,10.4797629 L14.3713799,12.2616234 L16.2430838,12.2578972 C16.2824162,12.2577937 16.3191609,12.2766318 16.3422428,12.3084082 C16.3817822,12.3630596 16.3695685,12.4393437 16.3149172,12.4788831 L14.7982397,13.5764636 L15.380566,15.3563575 C15.3927798,15.3936198 15.3863624,15.4345048 15.363177,15.4661777 C15.3235341,15.5207255 15.2471464,15.5327322 15.1925986,15.4929858 L13.6796474,14.3892984 L12.1674207,15.4928823 C12.1356443,15.5160677 12.0948628,15.5224851 12.0574971,15.5103749 C11.9934267,15.4893631 11.9584416,15.4204279 11.9794533,15.3563575 L12.5617796,13.5764636 L11.0451022,12.4788831 C11.0134293,12.4559047 10.9945911,12.418953 10.9946942,12.3798276 C10.9947981,12.3123415 11.0494495,12.2577937 11.1169356,12.2578972 L11.1169356,12.2578972 Z M28.6810189,20.362542 C28.4004134,19.9572115 28.1198079,19.5830363 27.8079434,19.24012 C26.7790911,17.9929729 25.5630993,16.9328616 24.1600718,16.1222005 C24.3472111,16.0598897 24.5030916,16.0287343 24.658972,15.9974754 C26.4050194,16.3404952 27.9950828,17.0887421 29.366955,18.086439 L29.3981103,18.1176979 L29.4604211,18.1488533 L29.5539908,18.2111641 L29.5851462,18.242423 L29.6788194,18.3047338 L29.7098712,18.3983034 L29.7722855,18.4294588 L29.8345963,18.4606142 L29.8657517,18.4917696 L29.928166,18.5230285 L29.9904768,18.5541839 L30.0217357,18.6164947 L30.0841499,18.6477536 L30.1463572,18.678909 L30.1776161,18.7100643 L30.2399269,18.7413232 C30.3334966,18.803634 30.3958073,18.8971002 30.489377,18.9595145 C29.928166,19.4895701 29.3045407,19.9572115 28.6810189,20.362542 L28.6810189,20.362542 Z M29.3982139,28.7496555 C29.3045407,30.4645475 28.8681582,32.1170251 28.1198079,33.5512081 C27.9326685,33.4576384 27.7456327,33.3641723 27.5585968,33.301758 C26.1244139,32.6782362 24.5654024,32.304061 22.9440801,32.2104913 L22.9440801,28.7496555 L29.3982139,28.7496555 Z M22.9440801,22.2333144 L22.9440801,17.1511563 C24.3783665,17.9306621 25.6254101,18.9595145 26.654366,20.2066616 C26.9038161,20.4872671 27.1220074,20.799028 27.3403021,21.1108924 C27.2156805,21.1732032 27.0909555,21.2356175 26.9662304,21.2667728 C25.7190833,21.7968285 24.3783665,22.1397448 22.9440801,22.2333144 L22.9440801,22.2333144 Z M27.5585968,22.6698004 C27.7456327,22.5762307 27.9326685,22.51392 28.1198079,22.4203503 C28.8368993,23.8545332 29.3045407,25.4758555 29.3981103,27.2219029 L22.9440801,27.2219029 L22.9440801,23.7610671 C24.5654024,23.6674974 26.1244139,23.2934257 27.5585968,22.6698004 L27.5585968,22.6698004 Z M28.1486861,12.2578972 L30.0203901,12.2616234 L30.5953674,10.4798664 C30.6109969,10.4312184 30.6554011,10.3974754 30.7064297,10.3954053 C30.761288,10.3931281 30.810764,10.4275957 30.8276355,10.4797629 L31.4032339,12.2616234 L33.2749379,12.2578972 C33.3142703,12.2577937 33.351015,12.2766318 33.3740969,12.3084082 C33.4136363,12.3630596 33.401319,12.4393437 33.3467712,12.4788831 L31.8300938,13.5764636 L32.4124201,15.3563575 C32.4246338,15.3936198 32.4181129,15.4345048 32.395031,15.4661777 C32.3553881,15.5207255 32.2790005,15.5327322 32.2244527,15.4929858 L30.7115015,14.3892984 L29.1992748,15.4928823 C29.1674984,15.5160677 29.1267169,15.5224851 29.0893511,15.5103749 C29.0252807,15.4893631 28.9902956,15.4204279 29.0112039,15.3563575 L29.5935302,13.5764636 L28.0769563,12.4788831 C28.0451798,12.4559047 28.0264452,12.418953 28.0265483,12.3798276 C28.0266522,12.3123415 28.0813035,12.2577937 28.1486861,12.2578972 L28.1486861,12.2578972 Z M22.1958332,5.49997249 C12.2546765,5.49997249 4.19578146,13.5588676 4.19578146,23.5000242 C4.19578146,33.4411809 12.2546765,41.4999725 22.1958332,41.4999725 C32.1369899,41.4999725 40.1957815,33.4411809 40.1957815,23.5000242 C40.1957815,13.5588676 32.1369899,5.49997249 22.1958332,5.49997249 L22.1958332,5.49997249 Z" id="Fill-1"></path>
            </g>
        </g>
    </g>
</svg>