<?xml version="1.0" encoding="UTF-8"?>
<svg width="33px" height="21px" viewBox="0 0 33 21" version="1.1" xmlns="http://www.w3.org/2000/svg" xmlns:xlink="http://www.w3.org/1999/xlink">
    <title>Shape</title>
    <g id="Symbols" stroke="none" stroke-width="1" fill="none" fill-rule="evenodd" opacity="0.5">
        <g id="User-box" transform="translate(-213.000000, -19.000000)" fill="#FFFFFF" fill-rule="nonzero">
            <path d="M231.008057,13.4235583 L237.817051,20.1549212 C239.382662,21.7260447 237.034038,24.0829383 235.468427,22.5118148 L232.543988,19.5767573 C232.054025,19.0850153 231.660892,19.2499109 231.660892,19.9400337 L231.660892,32.1656208 C231.660892,33.08638 230.917321,33.8321533 230.000208,33.8321533 C229.082679,33.8321533 228.339523,33.08638 228.339523,32.1656208 L228.339523,19.9400337 C228.339523,19.252311 227.944104,19.0872665 227.456331,19.5767573 L224.531573,22.5118148 C222.965962,24.0829383 220.617338,21.7260447 222.182949,20.1549212 L228.936018,13.427562 C229.50629,12.8594615 230.434804,12.8568414 231.008057,13.4235583 Z M224.583333,25.0821533 C225.503808,25.0821533 226.25,25.8283454 226.25,26.74882 C226.25,27.6692946 225.503808,28.4154867 224.583333,28.4154867 L224.165446,28.4154867 C223.706144,28.4154867 223.333333,28.7884602 223.333333,29.2484952 L223.333333,40.9158115 C223.333333,41.375742 223.706441,41.74882 224.166342,41.74882 L235.833658,41.74882 C236.293589,41.74882 236.666667,41.3757128 236.666667,40.9158115 L236.666667,29.2484952 C236.666667,28.7885621 236.293666,28.4154867 235.834554,28.4154867 L235.416667,28.4154867 C234.496192,28.4154867 233.75,27.6692946 233.75,26.74882 C233.75,25.8283454 234.496192,25.0821533 235.416667,25.0821533 L235.834554,25.0821533 C238.134763,25.0821533 240,26.9477615 240,29.2484952 L240,40.9158115 C240,43.2166034 238.134596,45.0821533 235.833658,45.0821533 L224.166342,45.0821533 C221.86555,45.0821533 220,43.2167498 220,40.9158115 L220,29.2484952 C220,26.947837 221.864869,25.0821533 224.165446,25.0821533 L224.583333,25.0821533 Z" id="Shape" transform="translate(230.000000, 29.041077) rotate(90.000000) translate(-230.000000, -29.041077) "></path>
        </g>
    </g>
</svg>