<?xml version="1.0" encoding="UTF-8"?>
<svg width="25px" height="26px" viewBox="0 0 25 26" version="1.1" xmlns="http://www.w3.org/2000/svg" xmlns:xlink="http://www.w3.org/1999/xlink">
    <title>Shape</title>
    <g id="Symbols" stroke="none" stroke-width="1" fill="none" fill-rule="evenodd">
        <g id="User-box" transform="translate(-266.000000, -17.000000)" fill="#F68D38" fill-rule="nonzero">
            <path d="M288.719821,28.9092461 L290.375826,27.9532847 C290.866028,27.6703239 291.103692,27.0930131 290.957089,26.5463333 C290.364021,24.334496 289.197126,22.3574625 287.625734,20.7843022 C287.226333,20.3844854 286.60773,20.3034612 286.11836,20.58611 L284.465372,21.5408233 C283.9284,21.1565467 283.355408,20.8252808 282.75445,20.5516825 L282.75445,18.6403317 C282.754383,18.074264 282.373613,17.5790206 281.826571,17.4334967 C279.654778,16.8558739 277.348031,16.8551458 275.173533,17.4334447 C274.626489,17.5789555 274.24555,18.074202 274.24555,18.6402797 L274.24555,20.5516305 C273.644592,20.8252288 273.0716,21.1564947 272.534628,21.5407713 L270.88164,20.586058 C270.39227,20.3034092 269.773667,20.3844334 269.374266,20.7842502 C267.802874,22.3574105 266.635979,24.3343919 266.042911,26.5462813 C265.896308,27.092961 266.133972,27.6702719 266.624174,27.9532327 L268.280179,28.9092461 C268.216732,29.5664348 268.216732,30.2282068 268.280179,30.8853955 L266.624174,31.8413569 C266.133972,32.1243178 265.896308,32.7016286 266.042911,33.2483083 C266.635979,35.4601457 267.802874,37.4371791 269.374266,39.0103395 C269.773667,39.4101562 270.39227,39.4911805 270.88164,39.2085317 L272.534628,38.2538184 C273.071589,38.6380974 273.644583,38.9693469 274.24555,39.2429072 L274.24555,41.1542579 C274.245617,41.7203257 274.626387,42.215569 275.173429,42.3610929 C277.345222,42.9387158 279.651969,42.9394958 281.826467,42.3611449 C282.373511,42.2156341 282.75445,41.7203876 282.75445,41.1543099 L282.75445,39.2429592 C283.355396,38.9693587 283.928387,38.6381114 284.465372,38.2538704 L286.11836,39.2085837 C286.60773,39.4912325 287.226333,39.4102082 287.625734,39.0103915 C289.197126,37.4372312 290.364021,35.4601977 290.957089,33.2483603 C291.103692,32.7016806 290.866028,32.1243698 290.375826,31.8414089 L288.719821,30.8854475 C288.783268,30.2275805 288.783268,29.5671132 288.719821,28.9092461 Z M285.980234,32.1865681 L288.259054,33.5017301 C287.849141,34.6088073 287.253873,35.63808 286.498727,36.5454963 L284.219387,35.2292942 C282.556049,36.6540833 282.312925,36.7934576 280.258247,37.5190355 L280.258247,40.1504516 C279.0945,40.3491123 277.9055,40.3491123 276.741753,40.1504516 L276.741753,37.5190355 C274.687335,36.7935616 274.443327,36.6535633 272.780613,35.2292942 L270.501273,36.5454963 C269.746137,35.638073 269.15087,34.6088022 268.740946,33.5017301 L271.019766,32.1865681 C270.622965,30.0388012 270.622757,29.7569325 271.019766,27.6081255 L268.740946,26.2929635 C269.149187,25.188943 269.745168,24.158198 270.501273,23.2491454 L272.780613,24.5653475 C274.443951,23.1405583 274.687127,23.0011321 276.741753,22.2756061 L276.741753,19.644242 C277.9055,19.4455814 279.0945,19.4455814 280.258247,19.644242 L280.258247,22.2756582 C282.312665,23.0011321 282.556673,23.1411303 284.219387,24.5653995 L286.498727,23.2491974 C287.253874,24.1566323 287.849141,25.1859222 288.259054,26.2930155 L285.980234,27.6081775 C286.377087,29.7559964 286.377243,30.0377611 285.980234,32.1865681 Z M278.5,24.9048381 C275.747099,24.9048381 273.507491,27.1444463 273.507491,29.8973468 C273.507491,32.6502473 275.747099,34.8898556 278.5,34.8898556 C281.252901,34.8898556 283.492509,32.6502473 283.492509,29.8973468 C283.492509,27.1444463 281.252901,24.9048381 278.5,24.9048381 Z M278.5,32.3936012 C277.123524,32.3936012 276.003746,31.2738231 276.003746,29.8973468 C276.003746,28.5209226 277.123524,27.4010924 278.5,27.4010924 C279.876476,27.4010924 280.996254,28.5209226 280.996254,29.8973468 C280.996254,31.2738231 279.876476,32.3936012 278.5,32.3936012 Z" id="Shape"></path>
        </g>
    </g>
</svg>