<svg width="220" height="67" xmlns="http://www.w3.org/2000/svg" xmlns:xlink="http://www.w3.org/1999/xlink" xmlns:svgjs="http://svgjs.com/svgjs" viewBox="610 353 220 67"><svg width="209" height="67" xmlns="http://www.w3.org/2000/svg" xmlns:xlink="http://www.w3.org/1999/xlink" xmlns:svgjs="http://svgjs.com/svgjs" viewBox="0 0.341 209 66.317" fill="#fff" x="610" y="353"><svg xmlns="http://www.w3.org/2000/svg" xmlns:xlink="http://www.w3.org/1999/xlink" width="209" height="67" viewBox="-0.001 0 208 66"><path paint-order="stroke fill markers" fill-rule="evenodd" d="M14.983 54.118L-.001 13.62l13.588.073L24.09 41.44l10.356-27.747h16.82L61.693 41.44l10.43-27.747h13.734L70.886 53.624l35.39-40.8h17.26l26.515 30.645 12.779-10.433L122.508 0h20.344L208 53.25h-20.492L173.04 41.367l-14.542 11.881H141.09l-8.079-9.78h-28.497l6.978-8.042h14.394l-10.943-12.751L77.413 66H60.151l10.369-11.954H52.588l-9.622-26.081-9.842 26.153H14.983z"/></svg></svg><svg width="32" height="18" xmlns="http://www.w3.org/2000/svg" xmlns:xlink="http://www.w3.org/1999/xlink" xmlns:svgjs="http://svgjs.com/svgjs" viewBox="0 0.226 32 17.549" fill="#f78e1e" x="787" y="367"><svg xmlns="http://www.w3.org/2000/svg" xmlns:xlink="http://www.w3.org/1999/xlink" width="32" height="18" viewBox="0 0 31 17"><path paint-order="stroke fill markers" fill-rule="evenodd" d="M10.112 0L0 8.28 10.407 17 31 0H10.112z"/></svg></svg><svg width="10" height="4" xmlns="http://www.w3.org/2000/svg" xmlns:xlink="http://www.w3.org/1999/xlink" xmlns:svgjs="http://svgjs.com/svgjs" fill="#fff" x="820" y="367"><svg xmlns="http://www.w3.org/2000/svg" width="10" height="4"><path paint-order="stroke fill markers" fill-rule="evenodd" d="M1.507.755H0V0h4.104v.755H2.598V4h-1.09V.755zM8.977 4l-.008-2.4-1.386 1.977h-.49l-1.38-1.926V4H4.692V0h.902l1.762 2.486L9.09 0h.895L10 4H8.977z"/></svg></svg></svg>